<svg viewBox="0 0 800 500" preserveAspectRatio="none" xmlns="http://www.w3.org/2000/svg" xmlns:xlink="http://www.w3.org/1999/xlink" width="100%" id="blobSvg">
    <g transform="translate(141.24170303344727, -3.8329391479492188)">
        <defs>
            <pattern id="pattern" x="0" y="0" width="28" height="49" patternUnits="userSpaceOnUse" fill="#d1d8e0">
                <path d="M13.99 9.25l13 7.5v15l-13 7.5L1 31.75v-15l12.99-7.5zM3 17.9v12.7l10.99 6.34 11-6.35V17.9l-11-6.34L3 17.9zM0 15l12.98-7.5V0h-2v6.35L0 12.69v2.3zm0 18.5L12.98 41v8h-2v-6.85L0 35.81v-2.3zM15 0v7.5L27.99 15H28v-2.31h-.01L17 6.35V0h-2zm0 49v-8l12.99-7.5H28v2.31h-.01L17 42.15V49h-2z"></path>
            </pattern>
        </defs>
        <path class="blob" d="M469,282Q446,314,445.5,352.5Q445,391,406,401.5Q367,412,345.5,445Q324,478,287,443Q250,408,229.5,393Q209,378,181.5,379.5Q154,381,108,383.5Q62,386,46.5,353.5Q31,321,65,285.5Q99,250,113,230Q127,210,105,169.5Q83,129,97.5,95Q112,61,153,69.5Q194,78,222,89Q250,100,284.5,69Q319,38,353,50Q387,62,376,114Q365,166,374.5,186.5Q384,207,438,228.5Q492,250,469,282Z" fill="url(#pattern)"></path>
    </g>
</svg>